<svg width="28" height="28" viewBox="0 0 28 28" fill="none" xmlns="http://www.w3.org/2000/svg">
<path fill-rule="evenodd" clip-rule="evenodd" d="M16.7166 23.9526C16.4331 24.1584 16.1254 24.329 15.787 24.4169C14.8345 24.6679 13.7939 24.2939 12.8848 24.0429C6.79046 22.3576 2.70843 19.7185 1.53757 15.7806C0.602929 12.6359 1.50182 9.48605 3.47836 7.5284C5.30934 5.71507 8.02388 4.97969 10.8087 6.15805C12.6218 3.76871 15.3478 3.07099 17.8555 3.74236C20.5624 4.46644 22.9424 6.75287 23.7328 9.93531C23.8877 10.5594 23.9656 11.1948 23.9664 11.8415C24.2933 12.0063 24.5997 12.2071 24.8857 12.4439C26.363 13.6724 27.1521 15.7593 26.7116 17.929C26.1498 20.6974 23.5387 22.6412 19.8039 24.0291C19.1643 24.2676 18.4646 24.5625 17.7661 24.442C17.378 24.3742 17.0307 24.1785 16.7166 23.9526ZM3.98909 15.0766C3.30599 12.7764 3.99292 10.5828 5.29146 9.29656C6.53765 8.06174 8.38523 7.60244 10.4282 8.77703C11.1419 9.18738 12.0625 8.94393 12.4711 8.23993C13.6432 6.21828 15.4768 5.70754 17.1839 6.16432C18.9638 6.64119 20.6748 8.20229 21.2519 10.5301C21.3225 10.8096 21.3694 11.0961 21.3923 11.3897C20.9245 11.4485 20.4683 11.5759 20.0389 11.7675C18.6676 10.4536 16.8519 10.1951 15.2508 10.7748C13.4351 11.4311 11.9667 13.1278 11.6246 15.3151C11.276 17.5551 12.3524 19.7386 14.3557 21.8381C14.1029 21.7753 13.8411 21.7 13.5768 21.6272C7.66382 19.9921 4.76668 17.6931 3.98909 15.0766ZM14.1501 15.6953C14.3544 14.3777 15.2214 13.4603 16.1331 13.129C16.9758 12.8253 17.9117 12.9847 18.6229 13.9949C18.7289 14.1454 18.8643 14.2738 19.0211 14.3726C19.1779 14.4714 19.3531 14.5387 19.5365 14.5705C19.72 14.6024 19.908 14.5982 20.0898 14.5582C20.2716 14.5182 20.4435 14.4432 20.5956 14.3375C21.6171 13.626 22.5517 13.7916 23.2361 14.3601C23.9792 14.9775 24.4721 16.132 24.2065 17.4384C23.9192 18.8564 22.4598 20.3598 18.9012 21.6812C18.6752 21.7653 18.4505 21.8556 18.2181 21.9221C18.0228 21.7803 17.8427 21.621 17.6589 21.4666C14.7758 19.0283 13.9267 17.1246 14.1501 15.6941V15.6953Z" fill="#EDEDED"/>
</svg>
